<?xml version="1.0" encoding="UTF-8"?>
<!DOCTYPE svg PUBLIC "-//W3C//DTD SVG 1.1//EN" "http://www.w3.org/Graphics/SVG/1.1/DTD/svg11.dtd">
<!-- Creator: CorelDRAW 2017 -->
<svg xmlns="http://www.w3.org/2000/svg" xml:space="preserve" width="1181px" height="1181px" version="1.1" style="shape-rendering:geometricPrecision; text-rendering:geometricPrecision; image-rendering:optimizeQuality; fill-rule:evenodd; clip-rule:evenodd"
viewBox="0 0 1181 1181"
 xmlns:xlink="http://www.w3.org/1999/xlink">
 <defs>
  <style type="text/css">
   <![CDATA[
    .fil0 {fill:black}
    .fil1 {fill:#E6E6E6}
   ]]>
  </style>
 </defs>
 <g id="Layer_x0020_1">
  <metadata id="CorelCorpID_0Corel-Layer"/>
  <g id="_1654158239232">
   <path class="fil0" d="M529 499c-172,63 -78,306 88,248 59,-21 104,-87 81,-164 -18,-60 -86,-114 -168,-84z"/>
   <path class="fil1" d="M529 499c82,-30 150,24 168,84 23,77 -21,143 -81,164 -165,57 -259,-186 -88,-248zm-454 -488c-97,38 -73,112 -73,224 0,144 -8,834 7,879 28,82 137,64 228,64 139,0 840,8 878,-7 82,-31 63,-136 63,-228 0,-141 7,-835 -8,-876 -31,-83 -131,-64 -225,-64 -140,0 -832,-8 -871,7z"/>
  </g>
 </g>
</svg>
