<?xml version="1.0" encoding="UTF-8"?>
<!DOCTYPE svg PUBLIC "-//W3C//DTD SVG 1.1//EN" "http://www.w3.org/Graphics/SVG/1.1/DTD/svg11.dtd">
<!-- Creator: CorelDRAW 2017 -->
<svg xmlns="http://www.w3.org/2000/svg" xml:space="preserve" width="1181px" height="1181px" version="1.1" style="shape-rendering:geometricPrecision; text-rendering:geometricPrecision; image-rendering:optimizeQuality; fill-rule:evenodd; clip-rule:evenodd"
viewBox="0 0 1181 1181"
 xmlns:xlink="http://www.w3.org/1999/xlink">
 <defs>
  <style type="text/css">
   <![CDATA[
    .fil0 {fill:#010101}
    .fil1 {fill:#E6E6E6}
   ]]>
  </style>
 </defs>
 <g id="Layer_x0020_1">
  <metadata id="CorelCorpID_0Corel-Layer"/>
  <g id="_1654211407952">
   <path class="fil0" d="M580 482c-168,59 -82,310 89,250 153,-54 80,-308 -89,-250z"/>
   <path class="fil0" d="M885 767c-183,44 -112,298 60,257 64,-15 111,-83 94,-161 -13,-61 -82,-113 -155,-96z"/>
   <path class="fil0" d="M279 173c-167,47 -102,299 70,255 156,-39 106,-306 -70,-255z"/>
   <path class="fil1" d="M885 767c72,-17 142,35 155,96 17,78 -31,146 -94,161 -172,41 -243,-213 -60,-257zm-305 -286c168,-59 242,196 89,250 -171,61 -257,-191 -89,-250zm-301 -309c176,-50 226,216 70,255 -172,44 -237,-208 -70,-255zm-192 -167c-100,18 -86,104 -86,204l1 884c14,101 110,87 203,87l892 -2c96,-18 83,-105 83,-208l-2 -881c-14,-95 -110,-86 -204,-86 -112,0 -841,-6 -887,2z"/>
  </g>
 </g>
</svg>
