<?xml version="1.0" encoding="UTF-8"?>
<!DOCTYPE svg PUBLIC "-//W3C//DTD SVG 1.1//EN" "http://www.w3.org/Graphics/SVG/1.1/DTD/svg11.dtd">
<!-- Creator: CorelDRAW 2017 -->
<svg xmlns="http://www.w3.org/2000/svg" xml:space="preserve" width="1181px" height="1181px" version="1.1" style="shape-rendering:geometricPrecision; text-rendering:geometricPrecision; image-rendering:optimizeQuality; fill-rule:evenodd; clip-rule:evenodd"
viewBox="0 0 1181 1181"
 xmlns:xlink="http://www.w3.org/1999/xlink">
 <defs>
  <style type="text/css">
   <![CDATA[
    .fil0 {fill:#010101}
    .fil1 {fill:#E6E6E6}
   ]]>
  </style>
 </defs>
 <g id="Layer_x0020_1">
  <metadata id="CorelCorpID_0Corel-Layer"/>
  <g id="_1654211414864">
   <path class="fil0" d="M760 925c31,158 291,126 259,-55 -30,-168 -294,-124 -259,55z"/>
   <path class="fil0" d="M169 934c16,60 80,110 163,91 61,-14 113,-82 92,-165 -38,-153 -302,-108 -255,74z"/>
   <path class="fil0" d="M862 176c-181,47 -106,301 66,254 158,-43 99,-298 -66,-254z"/>
   <path class="fil0" d="M270 175c-184,45 -108,296 60,256 62,-15 113,-83 94,-162 -14,-61 -79,-112 -154,-94z"/>
   <path class="fil0" d="M579 454c-163,35 -124,293 57,258 157,-30 119,-297 -57,-258z"/>
   <path class="fil1" d="M169 934c-47,-182 217,-227 255,-74 20,83 -31,151 -92,165 -82,19 -147,-31 -163,-91zm592 -8c-36,-178 229,-223 259,-55 32,181 -227,212 -259,55zm-181 -471c176,-38 214,228 57,258 -181,35 -220,-223 -57,-258zm-309 -279c75,-18 140,33 154,94 18,80 -33,148 -94,162 -168,40 -244,-211 -60,-256zm592 1c165,-43 224,212 66,254 -172,47 -247,-207 -66,-254zm-856 924c22,94 109,79 211,79l880 -1c94,-13 83,-119 83,-210 0,-116 6,-827 -3,-878 -18,-100 -121,-86 -211,-86 -116,0 -828,-6 -878,3 -98,18 -83,111 -83,211 0,151 -10,833 1,882z"/>
  </g>
 </g>
</svg>
