<?xml version="1.0" encoding="UTF-8"?>
<!DOCTYPE svg PUBLIC "-//W3C//DTD SVG 1.1//EN" "http://www.w3.org/Graphics/SVG/1.1/DTD/svg11.dtd">
<!-- Creator: CorelDRAW 2017 -->
<svg xmlns="http://www.w3.org/2000/svg" xml:space="preserve" width="210mm" height="210mm" version="1.1" style="shape-rendering:geometricPrecision; text-rendering:geometricPrecision; image-rendering:optimizeQuality; fill-rule:evenodd; clip-rule:evenodd"
viewBox="0 0 21000 21000"
 xmlns:xlink="http://www.w3.org/1999/xlink">
 <defs>
  <style type="text/css">
   <![CDATA[
    .fil0 {fill:wheat}
   ]]>
  </style>
 </defs>
 <g id="Layer_x0020_1">
  <metadata id="CorelCorpID_0Corel-Layer"/>
  <path class="fil0" d="M12613 13624c0,634 506,845 963,1105 223,127 658,349 133,680 -1454,915 -3144,1226 -4812,737 -249,-73 -463,-150 -714,-251 -282,-112 -395,-194 -639,-326 -920,-500 -1846,-1516 -2312,-2466 -107,-218 -220,-398 -393,-572 -1051,-1062 -3344,-578 -3344,1552 0,798 1227,2497 1711,2975 506,500 921,958 1523,1371 1240,851 2439,1465 3978,1719 1189,196 1824,217 3071,84 356,-38 877,-149 1222,-248 856,-246 1330,-436 2109,-831l884 -541c225,-164 701,-560 893,-560 597,2 462,1406 1607,1406 939,0 994,-992 1090,-1575l814 -4608c71,-427 183,-730 13,-1109 -374,-831 -1239,-534 -1910,-421l-4686 827c-574,96 -1201,303 -1201,1051zm-10016 -12083c-457,0 -718,164 -913,466 -180,279 -604,2981 -676,3413 -131,795 -275,1509 -407,2304 -71,427 -183,730 -13,1109 374,831 1239,534 1910,421l2813 -495c663,-132 2346,-318 2695,-613 377,-319 506,-847 217,-1295 -447,-693 -2051,-678 -557,-1480 269,-144 533,-283 817,-377 290,-96 566,-186 894,-254 1695,-353 3306,105 4660,1076 1677,1202 1519,2502 2710,3033 1366,609 2757,-503 2757,-1700 0,-1453 -1695,-3353 -2742,-4195 -327,-263 -595,-464 -951,-703 -662,-442 -1521,-830 -2273,-1081 -1337,-446 -3003,-607 -4437,-382 -1073,168 -1634,371 -2592,762 -770,315 -1433,792 -2085,1269 -876,641 -710,-1275 -1827,-1275z"/>
 </g>
</svg>
